<?xml version="1.0" encoding="utf-8"?>
<!-- Generator: Adobe Illustrator 24.0.0, SVG Export Plug-In . SVG Version: 6.00 Build 0)  -->
<svg version="1.1" id="Layer_1" xmlns="http://www.w3.org/2000/svg" xmlns:xlink="http://www.w3.org/1999/xlink" x="0px" y="0px"
	 viewBox="0 0 198.2 38" style="enable-background:new 0 0 198.2 38;" xml:space="preserve">
<style type="text/css">
	.st0{fill:#FFFFFF;}
</style>
<title>logo</title>
<g>
	<path class="st0" d="M32.8,27.5h-4v-11l-6,11h-2.4l-6.1-11v11h-4V7.3h3.6l7.7,14l7.7-14h3.6L32.8,27.5L32.8,27.5z"/>
	<path class="st0" d="M43.5,32.6H39l2.4-5.6l-6.3-14.6h4.4l4,9.6l4.2-9.6h4.4L43.5,32.6z"/>
	<path class="st0" d="M71.4,7.3c2.3,0,4.1,0.6,5.5,1.9c1.4,1.2,2,2.9,2,4.9c0,2.1-0.7,3.7-2,5c-1.3,1.2-3.2,1.9-5.5,1.9h-5.3v6.6H62
		V7.3H71.4z M71.4,17.2c1.1,0,1.9-0.3,2.5-0.8c0.6-0.6,0.9-1.3,0.9-2.3c0-0.9-0.3-1.7-0.9-2.2c-0.6-0.6-1.4-0.8-2.5-0.8h-5.3v6.2
		h5.3V17.2z"/>
	<path class="st0" d="M94.9,14.3c1.6,1.5,2.4,3.4,2.4,5.7s-0.8,4.2-2.4,5.7s-3.5,2.2-5.8,2.2s-4.2-0.7-5.8-2.2
		c-1.6-1.5-2.4-3.4-2.4-5.7s0.8-4.2,2.4-5.7s3.5-2.2,5.8-2.2S93.3,12.8,94.9,14.3z M92.1,23.2c0.9-0.8,1.3-1.9,1.3-3.2
		c0-1.3-0.4-2.4-1.3-3.3c-0.9-0.8-1.9-1.3-3-1.3s-2.2,0.4-3,1.2c-0.9,0.8-1.3,1.9-1.3,3.3c0,1.3,0.4,2.4,1.3,3.3s1.9,1.2,3,1.2
		C90.2,24.5,91.2,24.1,92.1,23.2z"/>
	<path class="st0" d="M110.7,12.3l-0.2,3.8h-0.9c-3.6,0-5.4,2.2-5.4,6.5v4.9h-4V12.4h4v2.8c1.4-2,3.2-3,5.4-3
		C110.1,12.2,110.5,12.3,110.7,12.3z"/>
	<path class="st0" d="M124.5,26.8c-1.4,0.7-2.7,1.1-3.9,1.1c-1.9,0-3.3-0.5-4.4-1.5c-1-1-1.6-2.5-1.6-4.5v-6.3h-3.2v-3.3h3.2V7.9h4
		v4.6h4.9v3.3h-4.9v6c0,1.7,0.7,2.6,2.2,2.6c0.8,0,1.6-0.2,2.5-0.7L124.5,26.8z"/>
	<path class="st0" d="M136,12.4v3.3h-4.6v11.8h-4V15.7h-2.3v-3.3h2.3V11c0-1.8,0.5-3.1,1.6-4.2s2.5-1.5,4.3-1.5c1,0,1.9,0.2,2.7,0.6
		l-0.9,3.2c-0.5-0.2-1-0.3-1.5-0.3c-0.7,0-1.2,0.2-1.6,0.6s-0.6,0.9-0.6,1.6v1.4C131.4,12.4,136,12.4,136,12.4z"/>
	<path class="st0" d="M150.6,14.3c1.6,1.5,2.4,3.4,2.4,5.7s-0.8,4.2-2.4,5.7c-1.6,1.5-3.5,2.2-5.8,2.2s-4.2-0.7-5.8-2.2
		s-2.4-3.4-2.4-5.7s0.8-4.2,2.4-5.7s3.5-2.2,5.8-2.2S149,12.8,150.6,14.3z M147.8,23.2c0.9-0.8,1.3-1.9,1.3-3.2
		c0-1.3-0.4-2.4-1.3-3.3c-0.9-0.8-1.9-1.3-3-1.3s-2.2,0.4-3,1.2c-0.9,0.8-1.3,1.9-1.3,3.3c0,1.3,0.4,2.4,1.3,3.3s1.9,1.2,3,1.2
		C145.9,24.5,146.9,24.1,147.8,23.2z"/>
	<path class="st0" d="M156,27.5V5.7h4v21.8H156z"/>
	<path class="st0" d="M168.1,6.2c0.5,0.5,0.7,1,0.7,1.7s-0.2,1.2-0.7,1.7c-0.5,0.4-1,0.7-1.7,0.7s-1.3-0.2-1.7-0.7
		c-0.5-0.4-0.7-1-0.7-1.7c0-0.6,0.2-1.2,0.7-1.7s1-0.7,1.7-0.7S167.7,5.8,168.1,6.2z M164.4,27.5V12.4h4v15.1H164.4z"/>
	<path class="st0" d="M185.6,14.3c1.6,1.5,2.4,3.4,2.4,5.7s-0.8,4.2-2.4,5.7c-1.6,1.5-3.5,2.2-5.8,2.2s-4.2-0.7-5.8-2.2
		s-2.4-3.4-2.4-5.7s0.8-4.2,2.4-5.7s3.5-2.2,5.8-2.2S184,12.8,185.6,14.3z M182.8,23.2c0.9-0.8,1.3-1.9,1.3-3.2
		c0-1.3-0.4-2.4-1.3-3.3c-0.9-0.8-1.9-1.3-3-1.3s-2.2,0.4-3,1.2c-0.9,0.8-1.3,1.9-1.3,3.3c0,1.3,0.4,2.4,1.3,3.3s1.9,1.2,3,1.2
		C181,24.5,182,24.1,182.8,23.2z"/>
</g>
</svg>
